<svg xmlns="http://www.w3.org/2000/svg" viewBox="0 0 112.27 147.95"><defs><style>.cls-1{fill:#00ff72;}</style></defs><g id="Layer_2" data-name="Layer 2"><g id="Layer_6" data-name="Layer 6"><path class="cls-1" d="M56.13,104.2A11.57,11.57,0,0,0,67.7,92.63V35.15a11.57,11.57,0,1,0-23.13,0V92.63A11.57,11.57,0,0,0,56.13,104.2Z"/><path class="cls-1" d="M100.7,0A11.57,11.57,0,0,0,89.13,11.57V91.82a33,33,0,0,1-66,0V61.43A11.57,11.57,0,1,0,0,61.43V91.82a56.14,56.14,0,0,0,112.27,0V11.57A11.57,11.57,0,0,0,100.7,0Z"/></g></g></svg>