<svg xmlns="http://www.w3.org/2000/svg" viewBox="0 0 287.93 45.27"><defs><style>.cls-1{fill:#fff;}.cls-2{fill:#00ff72;}</style></defs><g id="Layer_2" data-name="Layer 2"><g id="Layer_6" data-name="Layer 6"><polygon class="cls-1" points="54.01 0.27 46.83 0.27 46.83 44.46 71.79 44.46 71.79 37.59 54.01 37.59 54.01 0.27"/><path class="cls-1" d="M88.39,12.45a15.76,15.76,0,0,0-11.86,4.74,16,16,0,0,0-4.62,11.67,16,16,0,0,0,4.68,11.79c3.12,3.06,7.24,4.62,12.29,4.62,6.06,0,10.61-2.25,13.67-6.8L97,35.22a9.25,9.25,0,0,1-8,3.87c-5.18,0-9-2.62-10-7.36H103.8a19.31,19.31,0,0,0,.25-2.81,16.72,16.72,0,0,0-4.43-11.67A14.64,14.64,0,0,0,88.39,12.45ZM78.9,26.24a9.07,9.07,0,0,1,9.42-7.68c4.43,0,8,2.63,8.93,7.68Z"/><path class="cls-1" d="M124.39,12.45c-4.43,0-7.61,1.62-9.67,4.8v-4H108v31.2h6.74V27.74c0-6.06,3.18-9,7.92-9,4.31,0,7,2.56,7,7.24V44.46h6.74V25.3C136.37,17.32,131.56,12.45,124.39,12.45Z"/><path class="cls-1" d="M166.32,17.69c-2.56-3.49-6.18-5.24-10.92-5.24a14.6,14.6,0,0,0-11,4.74,16.14,16.14,0,0,0-4.56,11.67,16.27,16.27,0,0,0,4.56,11.67,14.6,14.6,0,0,0,11,4.74c4.74,0,8.36-1.75,10.92-5.3v4.49h6.74V.05h-6.74ZM163.51,36a10.25,10.25,0,0,1-14.1,0,9.87,9.87,0,0,1-2.81-7.17,9.64,9.64,0,0,1,2.81-7.11,10.09,10.09,0,0,1,14.1,0,9.64,9.64,0,0,1,2.81,7.11A9.87,9.87,0,0,1,163.51,36Z"/><path class="cls-1" d="M225.53,12.45a16.29,16.29,0,0,0-16.47,16.41,16.29,16.29,0,0,0,16.47,16.41,15.81,15.81,0,0,0,11.67-4.74A15.88,15.88,0,0,0,242,28.86a15.87,15.87,0,0,0-4.8-11.67A15.81,15.81,0,0,0,225.53,12.45Zm6.93,23.46a9.94,9.94,0,0,1-13.85,0,9.56,9.56,0,0,1-2.81-7,9.56,9.56,0,0,1,2.81-7,9.94,9.94,0,0,1,13.85,0,9.59,9.59,0,0,1,2.8,7.05A9.59,9.59,0,0,1,232.46,35.91Z"/><polygon class="cls-1" points="280.81 13.26 274.7 34.79 268.21 13.26 261.78 13.26 255.23 34.79 249.18 13.26 242.07 13.26 251.86 44.46 258.48 44.46 265.03 23.43 271.52 44.46 278.13 44.46 287.93 13.26 280.81 13.26"/><path class="cls-2" d="M16.75,31.4A3.44,3.44,0,0,0,20.2,28V10.79a3.45,3.45,0,0,0-6.9,0V28A3.45,3.45,0,0,0,16.75,31.4Z"/><path class="cls-2" d="M30.05.31A3.45,3.45,0,0,0,26.6,3.76v24a9.85,9.85,0,0,1-19.7,0V18.64a3.45,3.45,0,1,0-6.9,0v9.07a16.75,16.75,0,0,0,33.5,0v-24A3.44,3.44,0,0,0,30.05.31Z"/><path class="cls-1" d="M205,.05h0V0H193.73c-8.46.41-12.56,4.63-12.56,12.62v.62h-4.74v6.49h4.74V44.46h6.74V19.75h5.8V13.26h-5.8v-.62c0-4.19,2.11-6.42,6.38-6.71,1,0,4,0,4,0v38.5H205V7.77Z"/></g></g></svg>